<mxfile host="app.diagrams.net" agent="Mozilla/5.0 (Windows NT 10.0; Win64; x64) AppleWebKit/537.36 (KHTML, like Gecko) Chrome/129.0.0.0 Safari/537.36" version="24.7.17" pages="2">
  <diagram name="Page-1" id="qgOOMvftnfsSFSOd9pT3">
    <mxGraphModel dx="1246" dy="548" grid="1" gridSize="10" guides="1" tooltips="1" connect="1" arrows="1" fold="1" page="1" pageScale="1" pageWidth="850" pageHeight="1100" background="#FFD6EF" math="0" shadow="1">
      <root>
        <mxCell id="0" />
        <mxCell id="1" parent="0" />
        <mxCell id="QTA_gcc90bRDgEN-KfEN-3" value="" style="edgeStyle=orthogonalEdgeStyle;rounded=0;orthogonalLoop=1;jettySize=auto;html=1;" parent="1" source="QTA_gcc90bRDgEN-KfEN-1" target="QTA_gcc90bRDgEN-KfEN-2" edge="1">
          <mxGeometry relative="1" as="geometry" />
        </mxCell>
        <mxCell id="QTA_gcc90bRDgEN-KfEN-1" value="&lt;font style=&quot;font-size: 14px;&quot; face=&quot;Times New Roman&quot;&gt;&lt;b&gt;Start&lt;/b&gt;&lt;/font&gt;" style="strokeWidth=2;html=1;shape=mxgraph.flowchart.start_1;whiteSpace=wrap;fillColor=#60a917;strokeColor=#2D7600;fontColor=#ffffff;" parent="1" vertex="1">
          <mxGeometry x="376" y="10" width="100" height="60" as="geometry" />
        </mxCell>
        <mxCell id="4caepdqzPEkyx9wqCtiV-28" style="edgeStyle=orthogonalEdgeStyle;rounded=0;orthogonalLoop=1;jettySize=auto;html=1;exitX=0.5;exitY=1;exitDx=0;exitDy=0;entryX=0.5;entryY=0;entryDx=0;entryDy=0;" parent="1" source="QTA_gcc90bRDgEN-KfEN-2" target="QTA_gcc90bRDgEN-KfEN-4" edge="1">
          <mxGeometry relative="1" as="geometry" />
        </mxCell>
        <mxCell id="QTA_gcc90bRDgEN-KfEN-2" value="&lt;div style=&quot;line-height: 19px; white-space: pre; font-size: 11px;&quot;&gt;&lt;div style=&quot;line-height: 19px;&quot;&gt;&lt;font color=&quot;#ec9c13&quot; face=&quot;Times New Roman&quot;&gt;&lt;b&gt;What pizza toppings &lt;/b&gt;&lt;/font&gt;&lt;/div&gt;&lt;div style=&quot;line-height: 19px;&quot;&gt;&lt;b&gt;&lt;font color=&quot;#ec9c13&quot;&gt;&lt;font face=&quot;Times New Roman&quot;&gt;would &lt;/font&gt;&lt;span style=&quot;font-family: tvXt42T3HIWexgvs0ApT; background-color: initial;&quot;&gt;you like to order?&lt;/span&gt;&lt;/font&gt;&lt;/b&gt;&lt;/div&gt;&lt;/div&gt;" style="shape=parallelogram;perimeter=parallelogramPerimeter;whiteSpace=wrap;html=1;fixedSize=1;strokeWidth=2;align=center;fillColor=#fff2cc;strokeColor=#d6b656;" parent="1" vertex="1">
          <mxGeometry x="348" y="110" width="156" height="40" as="geometry" />
        </mxCell>
        <mxCell id="QTA_gcc90bRDgEN-KfEN-16" style="edgeStyle=orthogonalEdgeStyle;rounded=0;orthogonalLoop=1;jettySize=auto;html=1;entryX=0.5;entryY=0;entryDx=0;entryDy=0;exitX=0;exitY=0.5;exitDx=0;exitDy=0;" parent="1" source="QTA_gcc90bRDgEN-KfEN-4" target="QTA_gcc90bRDgEN-KfEN-17" edge="1">
          <mxGeometry relative="1" as="geometry">
            <mxPoint x="170" y="340" as="targetPoint" />
            <Array as="points">
              <mxPoint x="170" y="215" />
            </Array>
          </mxGeometry>
        </mxCell>
        <mxCell id="QTA_gcc90bRDgEN-KfEN-21" value="" style="edgeStyle=orthogonalEdgeStyle;rounded=0;orthogonalLoop=1;jettySize=auto;html=1;" parent="1" source="QTA_gcc90bRDgEN-KfEN-4" target="QTA_gcc90bRDgEN-KfEN-20" edge="1">
          <mxGeometry relative="1" as="geometry" />
        </mxCell>
        <mxCell id="QTA_gcc90bRDgEN-KfEN-22" style="edgeStyle=orthogonalEdgeStyle;rounded=0;orthogonalLoop=1;jettySize=auto;html=1;entryX=0.5;entryY=0;entryDx=0;entryDy=0;" parent="1" source="QTA_gcc90bRDgEN-KfEN-4" target="QTA_gcc90bRDgEN-KfEN-23" edge="1">
          <mxGeometry relative="1" as="geometry">
            <mxPoint x="650" y="275" as="targetPoint" />
          </mxGeometry>
        </mxCell>
        <mxCell id="QTA_gcc90bRDgEN-KfEN-4" value="&lt;div style=&quot;line-height: 19px; white-space: pre; font-size: 11px;&quot;&gt;&lt;font face=&quot;Times New Roman&quot; color=&quot;#ffb570&quot;&gt;&lt;b&gt;choose pizza &lt;/b&gt;&lt;/font&gt;&lt;/div&gt;&lt;div style=&quot;line-height: 19px; white-space: pre; font-size: 11px;&quot;&gt;&lt;font face=&quot;Times New Roman&quot; color=&quot;#ffb570&quot;&gt;&lt;b&gt;topping&lt;/b&gt;&lt;/font&gt;&lt;/div&gt;" style="rhombus;whiteSpace=wrap;html=1;strokeWidth=2;fillColor=#fff2cc;strokeColor=#d6b656;" parent="1" vertex="1">
          <mxGeometry x="373.5" y="180" width="105" height="70" as="geometry" />
        </mxCell>
        <mxCell id="QTA_gcc90bRDgEN-KfEN-6" value="&lt;div style=&quot;line-height: 19px; white-space: pre; font-size: 11px;&quot;&gt;&lt;font color=&quot;#f51436&quot; face=&quot;Times New Roman&quot;&gt;&lt;b style=&quot;&quot;&gt;Meat Monsta&lt;/b&gt;&lt;/font&gt;&lt;/div&gt;&lt;div style=&quot;line-height: 19px; white-space: pre; font-size: 11px;&quot;&gt;&lt;font color=&quot;#f51436&quot; face=&quot;Times New Roman&quot;&gt;&lt;b style=&quot;&quot;&gt;20.000&lt;/b&gt;&lt;/font&gt;&lt;/div&gt;" style="whiteSpace=wrap;html=1;strokeWidth=2;fillColor=#f8cecc;strokeColor=#b85450;" parent="1" vertex="1">
          <mxGeometry x="240" y="270" width="80" height="40" as="geometry" />
        </mxCell>
        <mxCell id="QTA_gcc90bRDgEN-KfEN-8" value="" style="endArrow=classic;html=1;rounded=0;exitX=0;exitY=0.5;exitDx=0;exitDy=0;entryX=0.5;entryY=0;entryDx=0;entryDy=0;" parent="1" source="QTA_gcc90bRDgEN-KfEN-4" target="QTA_gcc90bRDgEN-KfEN-6" edge="1">
          <mxGeometry width="50" height="50" relative="1" as="geometry">
            <mxPoint x="400" y="390" as="sourcePoint" />
            <mxPoint x="450" y="340" as="targetPoint" />
            <Array as="points">
              <mxPoint x="280" y="215" />
            </Array>
          </mxGeometry>
        </mxCell>
        <mxCell id="QTA_gcc90bRDgEN-KfEN-30" style="edgeStyle=orthogonalEdgeStyle;rounded=0;orthogonalLoop=1;jettySize=auto;html=1;entryX=0.5;entryY=0;entryDx=0;entryDy=0;entryPerimeter=0;" parent="1" target="QTA_gcc90bRDgEN-KfEN-29" edge="1">
          <mxGeometry relative="1" as="geometry">
            <Array as="points">
              <mxPoint x="170" y="360" />
              <mxPoint x="425" y="360" />
            </Array>
            <mxPoint x="170" y="250" as="sourcePoint" />
            <mxPoint x="425.2500000000002" y="390" as="targetPoint" />
          </mxGeometry>
        </mxCell>
        <mxCell id="QTA_gcc90bRDgEN-KfEN-17" value="&lt;div style=&quot;line-height: 19px; white-space: pre; font-size: 11px;&quot;&gt;&lt;font color=&quot;#f51436&quot; face=&quot;Times New Roman&quot;&gt;&lt;b style=&quot;&quot;&gt;Frankfurter&lt;/b&gt;&lt;/font&gt;&lt;/div&gt;&lt;div style=&quot;line-height: 19px; white-space: pre; font-size: 11px;&quot;&gt;&lt;font color=&quot;#f51436&quot; face=&quot;Times New Roman&quot;&gt;&lt;b style=&quot;&quot;&gt;10.000&lt;/b&gt;&lt;/font&gt;&lt;/div&gt;" style="whiteSpace=wrap;html=1;strokeWidth=2;fillColor=#f8cecc;strokeColor=#b85450;" parent="1" vertex="1">
          <mxGeometry x="130" y="270" width="80" height="40" as="geometry" />
        </mxCell>
        <mxCell id="QTA_gcc90bRDgEN-KfEN-20" value="&lt;font face=&quot;Times New Roman&quot; color=&quot;#f51436&quot;&gt;&lt;span style=&quot;font-size: 11px; white-space: pre;&quot;&gt;&lt;b&gt;Super Supreme &lt;/b&gt;&lt;/span&gt;&lt;/font&gt;&lt;div&gt;&lt;font face=&quot;Times New Roman&quot; color=&quot;#f51436&quot;&gt;&lt;span style=&quot;font-size: 11px; white-space: pre;&quot;&gt;&lt;b&gt;Chicken 15.000&lt;/b&gt;&lt;/span&gt;&lt;/font&gt;&lt;/div&gt;" style="whiteSpace=wrap;html=1;strokeWidth=2;fillColor=#f8cecc;strokeColor=#b85450;" parent="1" vertex="1">
          <mxGeometry x="490" y="272.5" width="90" height="35" as="geometry" />
        </mxCell>
        <mxCell id="QTA_gcc90bRDgEN-KfEN-23" value="&lt;font face=&quot;Times New Roman&quot; color=&quot;#f51436&quot;&gt;&lt;span style=&quot;font-size: 11px; white-space: pre;&quot;&gt;&lt;b&gt;Tuna cheesy bites&lt;/b&gt;&lt;/span&gt;&lt;/font&gt;&lt;div&gt;&lt;font face=&quot;Times New Roman&quot; color=&quot;#f51436&quot;&gt;&lt;span style=&quot;font-size: 11px; white-space: pre;&quot;&gt;&lt;b&gt;25.000&lt;/b&gt;&lt;/span&gt;&lt;/font&gt;&lt;/div&gt;" style="whiteSpace=wrap;html=1;strokeWidth=2;fillColor=#f8cecc;strokeColor=#b85450;" parent="1" vertex="1">
          <mxGeometry x="610" y="272.5" width="90" height="35" as="geometry" />
        </mxCell>
        <mxCell id="QTA_gcc90bRDgEN-KfEN-45" style="edgeStyle=orthogonalEdgeStyle;rounded=0;orthogonalLoop=1;jettySize=auto;html=1;" parent="1" source="QTA_gcc90bRDgEN-KfEN-29" target="QTA_gcc90bRDgEN-KfEN-41" edge="1">
          <mxGeometry relative="1" as="geometry">
            <mxPoint x="170" y="490" as="targetPoint" />
          </mxGeometry>
        </mxCell>
        <mxCell id="QTA_gcc90bRDgEN-KfEN-47" style="edgeStyle=orthogonalEdgeStyle;rounded=0;orthogonalLoop=1;jettySize=auto;html=1;entryX=0.5;entryY=0;entryDx=0;entryDy=0;" parent="1" source="QTA_gcc90bRDgEN-KfEN-29" target="QTA_gcc90bRDgEN-KfEN-42" edge="1">
          <mxGeometry relative="1" as="geometry" />
        </mxCell>
        <mxCell id="QTA_gcc90bRDgEN-KfEN-50" style="edgeStyle=orthogonalEdgeStyle;rounded=0;orthogonalLoop=1;jettySize=auto;html=1;" parent="1" source="QTA_gcc90bRDgEN-KfEN-29" target="QTA_gcc90bRDgEN-KfEN-44" edge="1">
          <mxGeometry relative="1" as="geometry" />
        </mxCell>
        <mxCell id="QTA_gcc90bRDgEN-KfEN-51" style="edgeStyle=orthogonalEdgeStyle;rounded=0;orthogonalLoop=1;jettySize=auto;html=1;entryX=0.5;entryY=0;entryDx=0;entryDy=0;" parent="1" source="QTA_gcc90bRDgEN-KfEN-29" target="QTA_gcc90bRDgEN-KfEN-43" edge="1">
          <mxGeometry relative="1" as="geometry" />
        </mxCell>
        <mxCell id="QTA_gcc90bRDgEN-KfEN-29" value="&lt;div style=&quot;line-height: 19px; white-space: pre; font-size: 11px;&quot;&gt;&lt;font face=&quot;Times New Roman&quot; color=&quot;#ffb570&quot;&gt;&lt;b&gt;choose pizza &lt;/b&gt;&lt;/font&gt;&lt;/div&gt;&lt;div style=&quot;line-height: 19px; white-space: pre; font-size: 11px;&quot;&gt;&lt;font face=&quot;Times New Roman&quot; color=&quot;#ffb570&quot;&gt;&lt;b&gt;crust&lt;/b&gt;&lt;/font&gt;&lt;/div&gt;" style="strokeWidth=2;html=1;shape=mxgraph.flowchart.decision;whiteSpace=wrap;fillColor=#fff2cc;strokeColor=#d6b656;" parent="1" vertex="1">
          <mxGeometry x="373.5" y="380" width="104.5" height="80" as="geometry" />
        </mxCell>
        <mxCell id="4caepdqzPEkyx9wqCtiV-14" style="edgeStyle=orthogonalEdgeStyle;rounded=0;orthogonalLoop=1;jettySize=auto;html=1;exitX=0.5;exitY=1;exitDx=0;exitDy=0;entryX=0.5;entryY=0;entryDx=0;entryDy=0;" parent="1" source="QTA_gcc90bRDgEN-KfEN-41" target="4caepdqzPEkyx9wqCtiV-13" edge="1">
          <mxGeometry relative="1" as="geometry" />
        </mxCell>
        <mxCell id="QTA_gcc90bRDgEN-KfEN-41" value="&lt;div style=&quot;line-height: 19px; white-space: pre; font-size: 11px;&quot;&gt;&lt;font color=&quot;#f51436&quot; face=&quot;Times New Roman&quot;&gt;&lt;b style=&quot;&quot;&gt;pan pizza&lt;/b&gt;&lt;/font&gt;&lt;/div&gt;&lt;div style=&quot;line-height: 19px; white-space: pre; font-size: 11px;&quot;&gt;&lt;font color=&quot;#f51436&quot; face=&quot;Times New Roman&quot;&gt;&lt;b style=&quot;&quot;&gt;10.000&lt;/b&gt;&lt;/font&gt;&lt;/div&gt;" style="whiteSpace=wrap;html=1;strokeWidth=2;fillColor=#f8cecc;strokeColor=#b85450;" parent="1" vertex="1">
          <mxGeometry x="130" y="470" width="80" height="35" as="geometry" />
        </mxCell>
        <mxCell id="4caepdqzPEkyx9wqCtiV-15" style="edgeStyle=orthogonalEdgeStyle;rounded=0;orthogonalLoop=1;jettySize=auto;html=1;exitX=0.5;exitY=1;exitDx=0;exitDy=0;" parent="1" source="QTA_gcc90bRDgEN-KfEN-42" target="4caepdqzPEkyx9wqCtiV-13" edge="1">
          <mxGeometry relative="1" as="geometry" />
        </mxCell>
        <mxCell id="QTA_gcc90bRDgEN-KfEN-42" value="&lt;div style=&quot;line-height: 19px; white-space: pre; font-size: 11px;&quot;&gt;&lt;font color=&quot;#f51436&quot; face=&quot;Times New Roman&quot;&gt;&lt;b style=&quot;&quot;&gt;stuffed crust sosis&lt;/b&gt;&lt;/font&gt;&lt;/div&gt;&lt;div style=&quot;line-height: 19px; white-space: pre; font-size: 11px;&quot;&gt;&lt;font color=&quot;#f51436&quot; face=&quot;Times New Roman&quot;&gt;&lt;b style=&quot;&quot;&gt;25.000&lt;/b&gt;&lt;/font&gt;&lt;/div&gt;" style="whiteSpace=wrap;html=1;strokeWidth=2;fillColor=#f8cecc;strokeColor=#b85450;" parent="1" vertex="1">
          <mxGeometry x="230" y="470" width="100" height="35" as="geometry" />
        </mxCell>
        <mxCell id="4caepdqzPEkyx9wqCtiV-16" style="edgeStyle=orthogonalEdgeStyle;rounded=0;orthogonalLoop=1;jettySize=auto;html=1;exitX=0.5;exitY=1;exitDx=0;exitDy=0;entryX=0.5;entryY=0;entryDx=0;entryDy=0;" parent="1" source="QTA_gcc90bRDgEN-KfEN-43" target="4caepdqzPEkyx9wqCtiV-13" edge="1">
          <mxGeometry relative="1" as="geometry" />
        </mxCell>
        <mxCell id="QTA_gcc90bRDgEN-KfEN-43" value="&lt;div style=&quot;line-height: 19px; white-space: pre; font-size: 11px;&quot;&gt;&lt;font face=&quot;Times New Roman&quot; color=&quot;#f51436&quot;&gt;&lt;b&gt;cream crust&lt;/b&gt;&lt;/font&gt;&lt;/div&gt;&lt;div style=&quot;line-height: 19px; white-space: pre; font-size: 11px;&quot;&gt;&lt;font face=&quot;Times New Roman&quot; color=&quot;#f51436&quot;&gt;&lt;b&gt;20.000&lt;/b&gt;&lt;/font&gt;&lt;/div&gt;" style="whiteSpace=wrap;html=1;strokeWidth=2;fillColor=#f8cecc;strokeColor=#b85450;" parent="1" vertex="1">
          <mxGeometry x="495" y="470" width="80" height="35" as="geometry" />
        </mxCell>
        <mxCell id="4caepdqzPEkyx9wqCtiV-17" style="edgeStyle=orthogonalEdgeStyle;rounded=0;orthogonalLoop=1;jettySize=auto;html=1;exitX=0.5;exitY=1;exitDx=0;exitDy=0;" parent="1" source="QTA_gcc90bRDgEN-KfEN-44" target="4caepdqzPEkyx9wqCtiV-13" edge="1">
          <mxGeometry relative="1" as="geometry" />
        </mxCell>
        <mxCell id="QTA_gcc90bRDgEN-KfEN-44" value="&lt;div style=&quot;line-height: 19px; white-space: pre; font-size: 11px;&quot;&gt;&lt;font face=&quot;Times New Roman&quot; color=&quot;#f51436&quot;&gt;&lt;b&gt;cheesy bites&lt;/b&gt;&lt;/font&gt;&lt;/div&gt;&lt;div style=&quot;line-height: 19px; white-space: pre; font-size: 11px;&quot;&gt;&lt;font face=&quot;Times New Roman&quot; color=&quot;#f51436&quot;&gt;&lt;b&gt;30.000&lt;/b&gt;&lt;/font&gt;&lt;/div&gt;" style="whiteSpace=wrap;html=1;strokeWidth=2;fillColor=#f8cecc;strokeColor=#b85450;" parent="1" vertex="1">
          <mxGeometry x="615" y="470" width="80" height="35" as="geometry" />
        </mxCell>
        <mxCell id="QTA_gcc90bRDgEN-KfEN-62" style="edgeStyle=orthogonalEdgeStyle;rounded=0;orthogonalLoop=1;jettySize=auto;html=1;entryX=0.5;entryY=0;entryDx=0;entryDy=0;" parent="1" source="QTA_gcc90bRDgEN-KfEN-52" target="QTA_gcc90bRDgEN-KfEN-58" edge="1">
          <mxGeometry relative="1" as="geometry" />
        </mxCell>
        <mxCell id="QTA_gcc90bRDgEN-KfEN-63" style="edgeStyle=orthogonalEdgeStyle;rounded=0;orthogonalLoop=1;jettySize=auto;html=1;entryX=0.5;entryY=0;entryDx=0;entryDy=0;" parent="1" source="QTA_gcc90bRDgEN-KfEN-52" target="QTA_gcc90bRDgEN-KfEN-59" edge="1">
          <mxGeometry relative="1" as="geometry" />
        </mxCell>
        <mxCell id="4caepdqzPEkyx9wqCtiV-21" style="edgeStyle=orthogonalEdgeStyle;rounded=0;orthogonalLoop=1;jettySize=auto;html=1;exitX=0.5;exitY=1;exitDx=0;exitDy=0;exitPerimeter=0;entryX=0;entryY=0.5;entryDx=0;entryDy=0;" parent="1" source="QTA_gcc90bRDgEN-KfEN-52" target="QTA_gcc90bRDgEN-KfEN-61" edge="1">
          <mxGeometry relative="1" as="geometry" />
        </mxCell>
        <mxCell id="QTA_gcc90bRDgEN-KfEN-52" value="&lt;div style=&quot;line-height: 19px; white-space: pre; font-size: 11px;&quot;&gt;&lt;font face=&quot;Times New Roman&quot; color=&quot;#ffb570&quot;&gt;&lt;b&gt;cust pizza size&lt;/b&gt;&lt;/font&gt;&lt;/div&gt;" style="strokeWidth=2;html=1;shape=mxgraph.flowchart.decision;whiteSpace=wrap;fillColor=#fff2cc;strokeColor=#d6b656;" parent="1" vertex="1">
          <mxGeometry x="373" y="550" width="102" height="90" as="geometry" />
        </mxCell>
        <mxCell id="QTA_gcc90bRDgEN-KfEN-58" value="&lt;div style=&quot;line-height: 19px; white-space: pre; font-size: 11px;&quot;&gt;&lt;font color=&quot;#f51436&quot; face=&quot;Times New Roman&quot;&gt;&lt;b style=&quot;&quot;&gt;personal&lt;/b&gt;&lt;/font&gt;&lt;/div&gt;&lt;div style=&quot;line-height: 19px; white-space: pre; font-size: 11px;&quot;&gt;&lt;font color=&quot;#f51436&quot; face=&quot;Times New Roman&quot;&gt;&lt;b style=&quot;&quot;&gt;10.000&lt;/b&gt;&lt;/font&gt;&lt;/div&gt;" style="whiteSpace=wrap;html=1;strokeWidth=2;fillColor=#f8cecc;strokeColor=#b85450;" parent="1" vertex="1">
          <mxGeometry x="140" y="660" width="80" height="40" as="geometry" />
        </mxCell>
        <mxCell id="QTA_gcc90bRDgEN-KfEN-59" value="&lt;div style=&quot;line-height: 19px; white-space: pre; font-size: 11px;&quot;&gt;&lt;font color=&quot;#f51436&quot; face=&quot;Times New Roman&quot;&gt;&lt;b style=&quot;&quot;&gt;medium&lt;/b&gt;&lt;/font&gt;&lt;/div&gt;&lt;div style=&quot;line-height: 19px; white-space: pre; font-size: 11px;&quot;&gt;&lt;font color=&quot;#f51436&quot; face=&quot;Times New Roman&quot;&gt;&lt;b style=&quot;&quot;&gt;20.000&lt;/b&gt;&lt;/font&gt;&lt;/div&gt;" style="whiteSpace=wrap;html=1;strokeWidth=2;fillColor=#f8cecc;strokeColor=#b85450;" parent="1" vertex="1">
          <mxGeometry x="240" y="660" width="80" height="40" as="geometry" />
        </mxCell>
        <mxCell id="QTA_gcc90bRDgEN-KfEN-61" value="&lt;div style=&quot;line-height: 19px; white-space: pre; font-size: 11px;&quot;&gt;&lt;font color=&quot;#f51436&quot; face=&quot;Times New Roman&quot;&gt;&lt;b style=&quot;&quot;&gt;Large&lt;/b&gt;&lt;/font&gt;&lt;/div&gt;&lt;div style=&quot;line-height: 19px; white-space: pre; font-size: 11px;&quot;&gt;&lt;font color=&quot;#f51436&quot; face=&quot;Times New Roman&quot;&gt;&lt;b style=&quot;&quot;&gt;30.000&lt;/b&gt;&lt;/font&gt;&lt;/div&gt;" style="whiteSpace=wrap;html=1;strokeWidth=2;fillColor=#f8cecc;strokeColor=#b85450;" parent="1" vertex="1">
          <mxGeometry x="535" y="660" width="80" height="40" as="geometry" />
        </mxCell>
        <mxCell id="QTA_gcc90bRDgEN-KfEN-73" style="edgeStyle=orthogonalEdgeStyle;rounded=0;orthogonalLoop=1;jettySize=auto;html=1;entryX=0.5;entryY=0;entryDx=0;entryDy=0;" parent="1" source="QTA_gcc90bRDgEN-KfEN-65" target="QTA_gcc90bRDgEN-KfEN-72" edge="1">
          <mxGeometry relative="1" as="geometry" />
        </mxCell>
        <mxCell id="QTA_gcc90bRDgEN-KfEN-81" value="Yes" style="edgeLabel;html=1;align=center;verticalAlign=middle;resizable=0;points=[];" parent="QTA_gcc90bRDgEN-KfEN-73" vertex="1" connectable="0">
          <mxGeometry x="0.5049" y="1" relative="1" as="geometry">
            <mxPoint as="offset" />
          </mxGeometry>
        </mxCell>
        <mxCell id="QTA_gcc90bRDgEN-KfEN-65" value="&lt;font face=&quot;Times New Roman&quot; color=&quot;#ffb570&quot;&gt;&lt;span style=&quot;font-size: 11px; white-space: pre;&quot;&gt;&lt;b&gt;do you want to add &lt;/b&gt;&lt;/span&gt;&lt;/font&gt;&lt;div&gt;&lt;font face=&quot;Times New Roman&quot; color=&quot;#ffb570&quot;&gt;&lt;span style=&quot;font-size: 11px; white-space: pre;&quot;&gt;&lt;b&gt;cheese?&lt;/b&gt;&lt;/span&gt;&lt;/font&gt;&lt;/div&gt;" style="strokeWidth=2;html=1;shape=mxgraph.flowchart.decision;whiteSpace=wrap;fillColor=#fff2cc;strokeColor=#d6b656;" parent="1" vertex="1">
          <mxGeometry x="373.5" y="780" width="124" height="90" as="geometry" />
        </mxCell>
        <mxCell id="QTA_gcc90bRDgEN-KfEN-66" style="edgeStyle=orthogonalEdgeStyle;rounded=0;orthogonalLoop=1;jettySize=auto;html=1;exitX=0.5;exitY=1;exitDx=0;exitDy=0;entryX=0.5;entryY=0;entryDx=0;entryDy=0;entryPerimeter=0;" parent="1" source="QTA_gcc90bRDgEN-KfEN-58" target="QTA_gcc90bRDgEN-KfEN-65" edge="1">
          <mxGeometry relative="1" as="geometry" />
        </mxCell>
        <mxCell id="QTA_gcc90bRDgEN-KfEN-69" style="edgeStyle=orthogonalEdgeStyle;rounded=0;orthogonalLoop=1;jettySize=auto;html=1;exitX=0.5;exitY=1;exitDx=0;exitDy=0;entryX=0.5;entryY=0;entryDx=0;entryDy=0;entryPerimeter=0;" parent="1" source="QTA_gcc90bRDgEN-KfEN-59" target="QTA_gcc90bRDgEN-KfEN-65" edge="1">
          <mxGeometry relative="1" as="geometry" />
        </mxCell>
        <mxCell id="QTA_gcc90bRDgEN-KfEN-71" style="edgeStyle=orthogonalEdgeStyle;rounded=0;orthogonalLoop=1;jettySize=auto;html=1;exitX=0.5;exitY=1;exitDx=0;exitDy=0;entryX=0.5;entryY=0;entryDx=0;entryDy=0;entryPerimeter=0;" parent="1" source="QTA_gcc90bRDgEN-KfEN-61" target="QTA_gcc90bRDgEN-KfEN-65" edge="1">
          <mxGeometry relative="1" as="geometry" />
        </mxCell>
        <mxCell id="4caepdqzPEkyx9wqCtiV-25" style="edgeStyle=orthogonalEdgeStyle;rounded=0;orthogonalLoop=1;jettySize=auto;html=1;exitX=0.5;exitY=1;exitDx=0;exitDy=0;entryX=0;entryY=0.5;entryDx=0;entryDy=0;" parent="1" source="QTA_gcc90bRDgEN-KfEN-72" target="4caepdqzPEkyx9wqCtiV-23" edge="1">
          <mxGeometry relative="1" as="geometry" />
        </mxCell>
        <mxCell id="QTA_gcc90bRDgEN-KfEN-72" value="&lt;div style=&quot;line-height: 19px; white-space: pre; font-size: 11px;&quot;&gt;&lt;font color=&quot;#f51436&quot; face=&quot;Times New Roman&quot;&gt;&lt;b style=&quot;&quot;&gt;cheese 13000&lt;/b&gt;&lt;/font&gt;&lt;/div&gt;" style="whiteSpace=wrap;html=1;strokeWidth=2;fillColor=#e1d5e7;strokeColor=#9673a6;" parent="1" vertex="1">
          <mxGeometry x="280" y="890" width="80" height="30" as="geometry" />
        </mxCell>
        <mxCell id="QTA_gcc90bRDgEN-KfEN-75" style="edgeStyle=orthogonalEdgeStyle;rounded=0;orthogonalLoop=1;jettySize=auto;html=1;exitX=0.5;exitY=1;exitDx=0;exitDy=0;exitPerimeter=0;entryX=0.5;entryY=0;entryDx=0;entryDy=0;" parent="1" source="QTA_gcc90bRDgEN-KfEN-65" target="4caepdqzPEkyx9wqCtiV-23" edge="1">
          <mxGeometry relative="1" as="geometry">
            <mxPoint x="438" y="970.0000000000002" as="targetPoint" />
          </mxGeometry>
        </mxCell>
        <mxCell id="QTA_gcc90bRDgEN-KfEN-82" value="No" style="edgeLabel;html=1;align=center;verticalAlign=middle;resizable=0;points=[];" parent="QTA_gcc90bRDgEN-KfEN-75" vertex="1" connectable="0">
          <mxGeometry x="-0.1774" y="1" relative="1" as="geometry">
            <mxPoint as="offset" />
          </mxGeometry>
        </mxCell>
        <mxCell id="4caepdqzPEkyx9wqCtiV-2" style="edgeStyle=orthogonalEdgeStyle;rounded=0;orthogonalLoop=1;jettySize=auto;html=1;exitX=0.5;exitY=1;exitDx=0;exitDy=0;entryX=0.5;entryY=0;entryDx=0;entryDy=0;entryPerimeter=0;" parent="1" source="QTA_gcc90bRDgEN-KfEN-6" target="QTA_gcc90bRDgEN-KfEN-29" edge="1">
          <mxGeometry relative="1" as="geometry">
            <Array as="points">
              <mxPoint x="280" y="360" />
              <mxPoint x="426" y="360" />
            </Array>
          </mxGeometry>
        </mxCell>
        <mxCell id="4caepdqzPEkyx9wqCtiV-3" style="edgeStyle=orthogonalEdgeStyle;rounded=0;orthogonalLoop=1;jettySize=auto;html=1;exitX=0.5;exitY=1;exitDx=0;exitDy=0;entryX=0.5;entryY=0;entryDx=0;entryDy=0;entryPerimeter=0;" parent="1" source="QTA_gcc90bRDgEN-KfEN-20" target="QTA_gcc90bRDgEN-KfEN-29" edge="1">
          <mxGeometry relative="1" as="geometry">
            <Array as="points">
              <mxPoint x="535" y="360" />
              <mxPoint x="426" y="360" />
            </Array>
          </mxGeometry>
        </mxCell>
        <mxCell id="4caepdqzPEkyx9wqCtiV-4" style="edgeStyle=orthogonalEdgeStyle;rounded=0;orthogonalLoop=1;jettySize=auto;html=1;exitX=0.5;exitY=1;exitDx=0;exitDy=0;entryX=0.5;entryY=0;entryDx=0;entryDy=0;entryPerimeter=0;" parent="1" source="QTA_gcc90bRDgEN-KfEN-23" target="QTA_gcc90bRDgEN-KfEN-29" edge="1">
          <mxGeometry relative="1" as="geometry">
            <Array as="points">
              <mxPoint x="655" y="360" />
              <mxPoint x="426" y="360" />
            </Array>
          </mxGeometry>
        </mxCell>
        <mxCell id="4caepdqzPEkyx9wqCtiV-19" style="edgeStyle=orthogonalEdgeStyle;rounded=0;orthogonalLoop=1;jettySize=auto;html=1;exitX=0;exitY=0.5;exitDx=0;exitDy=0;" parent="1" source="4caepdqzPEkyx9wqCtiV-13" target="QTA_gcc90bRDgEN-KfEN-52" edge="1">
          <mxGeometry relative="1" as="geometry" />
        </mxCell>
        <mxCell id="4caepdqzPEkyx9wqCtiV-13" value="&lt;div style=&quot;line-height: 19px; white-space: pre; font-size: 11px;&quot;&gt;&lt;font color=&quot;#ec9c13&quot; face=&quot;Times New Roman&quot;&gt;&lt;b&gt;What size do you&lt;/b&gt;&lt;/font&gt;&lt;/div&gt;&lt;div style=&quot;line-height: 19px; white-space: pre; font-size: 11px;&quot;&gt;&lt;b&gt;&lt;font color=&quot;#ec9c13&quot;&gt;&lt;font face=&quot;Times New Roman&quot;&gt;want &lt;/font&gt;&lt;span style=&quot;font-family: tvXt42T3HIWexgvs0ApT; background-color: initial;&quot;&gt;to order?&lt;/span&gt;&lt;/font&gt;&lt;/b&gt;&lt;/div&gt;" style="whiteSpace=wrap;html=1;fillColor=#fff2cc;strokeColor=#d6b656;strokeWidth=2;" parent="1" vertex="1">
          <mxGeometry x="615" y="570" width="110" height="50" as="geometry" />
        </mxCell>
        <mxCell id="4caepdqzPEkyx9wqCtiV-22" value="&lt;font style=&quot;font-size: 14px;&quot; face=&quot;Times New Roman&quot;&gt;&lt;b&gt;Your final bill&lt;/b&gt;&lt;/font&gt;" style="strokeWidth=2;html=1;shape=mxgraph.flowchart.start_1;whiteSpace=wrap;fillColor=#a20025;strokeColor=#6F0000;fontColor=#ffffff;" parent="1" vertex="1">
          <mxGeometry x="560" y="870" width="100" height="60" as="geometry" />
        </mxCell>
        <mxCell id="4caepdqzPEkyx9wqCtiV-23" value="&lt;div style=&quot;line-height: 19px; white-space: pre; font-size: 11px;&quot;&gt;&lt;font face=&quot;Times New Roman&quot; color=&quot;#ec9c13&quot;&gt;&lt;b&gt;Thank you for choosing&lt;/b&gt;&lt;/font&gt;&lt;/div&gt;&lt;div style=&quot;line-height: 19px; white-space: pre; font-size: 11px;&quot;&gt;&lt;font face=&quot;Times New Roman&quot; color=&quot;#ec9c13&quot;&gt;&lt;b&gt;Pizza Informatic &lt;/b&gt;&lt;/font&gt;&lt;/div&gt;&lt;div style=&quot;line-height: 19px; white-space: pre; font-size: 11px;&quot;&gt;&lt;font face=&quot;Times New Roman&quot; color=&quot;#ec9c13&quot;&gt;&lt;b&gt;Management&lt;/b&gt;&lt;/font&gt;&lt;/div&gt;" style="whiteSpace=wrap;html=1;fillColor=#fff2cc;strokeColor=#d6b656;strokeWidth=2;hachureGap=4;fontFamily=Architects Daughter;fontSource=https%3A%2F%2Ffonts.googleapis.com%2Fcss%3Ffamily%3DArchitects%2BDaughter;" parent="1" vertex="1">
          <mxGeometry x="377.5" y="950" width="120" height="60" as="geometry" />
        </mxCell>
        <mxCell id="4caepdqzPEkyx9wqCtiV-26" style="edgeStyle=orthogonalEdgeStyle;rounded=0;orthogonalLoop=1;jettySize=auto;html=1;exitX=1;exitY=0.5;exitDx=0;exitDy=0;entryX=0.5;entryY=1;entryDx=0;entryDy=0;entryPerimeter=0;" parent="1" source="4caepdqzPEkyx9wqCtiV-23" target="4caepdqzPEkyx9wqCtiV-22" edge="1">
          <mxGeometry relative="1" as="geometry" />
        </mxCell>
      </root>
    </mxGraphModel>
  </diagram>
  <diagram id="5AopCb5MNCV3ixq286XL" name="Page-2">
    <mxGraphModel dx="1246" dy="548" grid="1" gridSize="10" guides="1" tooltips="1" connect="1" arrows="1" fold="1" page="1" pageScale="1" pageWidth="850" pageHeight="1100" math="0" shadow="0">
      <root>
        <mxCell id="0" />
        <mxCell id="1" parent="0" />
      </root>
    </mxGraphModel>
  </diagram>
</mxfile>
